<svg preserveAspectRatio="none" width="165" height="621" viewBox="0 0 165 621" fill="none" xmlns="http://www.w3.org/2000/svg">
<path fill-rule="evenodd" clip-rule="evenodd" d="M0 423.329L5.22042 619.806C34.0118 620.439 97.4263 621.665 118.646 620.281C140.477 618.857 146.172 605.569 146.172 594.653L144.748 408.142L135.731 388.684L137.155 387.26V383.938L135.731 381.091H134.307V277.632L135.731 274.784L137.155 272.411V264.818L146.172 259.123L149.494 255.326V243.461L145.223 241.089L139.053 240.139V233.495L137.155 231.597L141.426 112.476L143.799 111.053V86.3742L164.206 50.7805C164.522 43.6617 164.965 28.0954 164.206 22.78C163.447 17.4647 149.336 11.39 142.375 9.01709L17.085 0L13.7629 3.79667V24.2038C14.7121 36.0684 17.085 62.0756 18.9834 71.1876C20.8817 80.2996 34.3282 82.894 40.8142 83.0522L113.9 88.2726L118.171 89.6963V112.476H120.07L115.798 231.597H113.9V241.089L2.37292 241.563V256.75L33.6955 274.784H42.7125L48.4076 288.547L52.2042 292.344H102.036L106.307 290.92L112.002 275.733H113.9L112.476 378.718L110.103 382.04C90.3291 382.673 48.3126 383.938 38.4413 383.938C28.5699 383.938 18.1924 389 14.2375 391.532L0 423.329ZM50.3071 275.26L54.5784 283.802H64.0701L65.0192 275.26H50.3071ZM72.138 275.26V283.802H83.0534V275.26H72.138ZM91.5959 283.802V275.26H104.884L100.613 283.802H91.5959ZM121.019 62.643L57.4247 58.3717C51.5715 56.6316 39.8651 52.3919 39.8651 49.3546V27.0492L52.6789 30.8458L117.222 34.1679L135.256 35.5917C136.522 35.5917 138.673 36.5409 137.155 40.3375C135.636 44.1342 129.561 56.7898 126.714 62.643L124.816 61.6938L121.019 62.643Z" fill="black"/>
</svg>
